<?xml version="1.0" encoding="utf-8"?>
<!-- Generator: Adobe Illustrator 16.0.0, SVG Export Plug-In . SVG Version: 6.00 Build 0)  -->
<!DOCTYPE svg PUBLIC "-//W3C//DTD SVG 1.1//EN" "http://www.w3.org/Graphics/SVG/1.1/DTD/svg11.dtd">
<svg version="1.1" id="Capa_1" xmlns="http://www.w3.org/2000/svg" xmlns:xlink="http://www.w3.org/1999/xlink" x="0px" y="0px"
	 width="483.963px" height="483.964px" viewBox="0 0 483.963 483.964" enable-background="new 0 0 483.963 483.964"
	 xml:space="preserve">
<g>
	<radialGradient id="SVGID_1_" cx="-18.5186" cy="41.4819" r="691.9227" gradientUnits="userSpaceOnUse">
		<stop  offset="0" style="stop-color:#9A0FB2"/>
		<stop  offset="1" style="stop-color:#DD3E56"/>
	</radialGradient>
	<path fill="url(#SVGID_1_)" d="M403.688,250.789c-11.898-4.201-26.898-2-37.5-11.101c-11.5-9.9-16.6-24.301-25.5-36.2
		c-8.898-11.9-21.699-19.101-35.6-24c-16.5-5.7-36.5-6.5-54-2c-3.101,0.8-32.2,12.899-32.5,12.6c-24-24-65.1-65-89.1-89
		c1.7-10.8-1.6-22.2-9.7-30.3l-39-39.1c-13.5-13.5-36.1-13.5-49.6,0s-13.5,36.1,0,49.6l39.1,39.1c8.4,8.4,20.4,11.601,31.4,9.5
		c23.8,23.801,64.7,64.7,88.5,88.5c-0.7-0.699-12.7,27.801-13.4,30.602c-2.8,11.299-3.5,23-2.3,34.6
		c3.6,32.5,24.1,62.101,53.3,76.699c17.1,8.601,15.701,15.301,20.201,33c5.3,20.9,15.8,40.201,31,55.5
		c46.898,46.9,122.8,46.9,169.698,0c46.9-46.898,46.9-122.799,0-169.699C436.088,266.488,420.588,256.688,403.688,250.789z
		 M293.989,340.789c-26.301,0-47.7-21.301-47.7-47.701c0-26.398,21.3-47.699,47.7-47.699c26.3,0,47.698,21.301,47.698,47.699
		C341.688,319.488,320.388,340.789,293.989,340.789z M405.088,354.188l-51.601,51.601c-2,2-4.5,2.898-7.101,2.898
		c-2.6,0-5.1-1-7.1-2.898c-3.9-3.9-3.9-10.301,0-14.201l51.6-51.6c3.9-3.9,10.301-3.9,14.2,0
		C409.088,343.888,409.088,350.289,405.088,354.188z"/>
	<radialGradient id="SVGID_2_" cx="-18.5186" cy="41.4819" r="691.9227" gradientUnits="userSpaceOnUse">
		<stop  offset="0" style="stop-color:#9A0FB2"/>
		<stop  offset="1" style="stop-color:#DD3E56"/>
	</radialGradient>
	<path fill="url(#SVGID_2_)" d="M293.989,254.988c-21,0-38.102,17.1-38.102,38.1s17.102,38.102,38.102,38.102
		c20.999,0,38.1-17.102,38.1-38.102C332.188,272.087,315.088,254.988,293.989,254.988z M265.989,293.087c0-15.5,12.6-28.1,28.1-28.1
		s28.101,12.6,28.101,28.1s-12.601,28.102-28.101,28.102S265.989,308.587,265.989,293.087z"/>
	<radialGradient id="SVGID_3_" cx="-18.5186" cy="41.4819" r="691.9227" gradientUnits="userSpaceOnUse">
		<stop  offset="0" style="stop-color:#9A0FB2"/>
		<stop  offset="1" style="stop-color:#DD3E56"/>
	</radialGradient>
	<path fill="url(#SVGID_3_)" d="M100.388,0.788c-1.2-1.2-2.8-1-3.7,0.4l-10.7,17.3c-0.9,1.399-0.6,3.5,0.5,4.7l5.4,5.399
		c1.2,1.2,3.3,1.4,4.7,0.5l17.3-10.7c1.4-0.899,1.6-2.5,0.4-3.699L100.388,0.788z"/>
	<radialGradient id="SVGID_4_" cx="-18.5186" cy="41.4819" r="691.9227" gradientUnits="userSpaceOnUse">
		<stop  offset="0" style="stop-color:#9A0FB2"/>
		<stop  offset="1" style="stop-color:#DD3E56"/>
	</radialGradient>
	<path fill="url(#SVGID_4_)" d="M18.388,113.888l10.7-17.3c0.9-1.399,0.6-3.5-0.5-4.7l-5.4-5.399c-1.2-1.2-3.3-1.4-4.7-0.5
		l-17.2,10.7c-1.4,0.899-1.6,2.5-0.4,3.699l13.9,13.9C15.888,115.488,17.588,115.288,18.388,113.888z"/>
	<radialGradient id="SVGID_5_" cx="-18.5186" cy="41.4819" r="691.9227" gradientUnits="userSpaceOnUse">
		<stop  offset="0" style="stop-color:#9A0FB2"/>
		<stop  offset="1" style="stop-color:#DD3E56"/>
	</radialGradient>
	<path fill="url(#SVGID_5_)" d="M131.888,36.388l-10.7,17.301c-0.9,1.399-0.6,3.5,0.5,4.699l5.4,5.4c1.2,1.2,3.3,1.4,4.7,0.5
		l17.3-10.7c1.4-0.899,1.6-2.5,0.4-3.7l-13.9-13.899C134.388,34.788,132.788,34.988,131.888,36.388z"/>
	<radialGradient id="SVGID_6_" cx="-18.5186" cy="41.4819" r="691.9227" gradientUnits="userSpaceOnUse">
		<stop  offset="0" style="stop-color:#9A0FB2"/>
		<stop  offset="1" style="stop-color:#DD3E56"/>
	</radialGradient>
	<path fill="url(#SVGID_6_)" d="M53.588,148.988l10.7-17.3c0.9-1.4,0.6-3.5-0.5-4.7l-5.4-5.4c-1.2-1.2-3.3-1.399-4.7-0.5l-17.3,10.8
		c-1.4,0.9-1.6,2.5-0.4,3.7l13.9,13.9C51.088,150.588,52.688,150.488,53.588,148.988z"/>
</g>
</svg>
