<?xml version="1.0" encoding="utf-8"?>
<!-- Generator: Adobe Illustrator 16.0.0, SVG Export Plug-In . SVG Version: 6.00 Build 0)  -->
<!DOCTYPE svg PUBLIC "-//W3C//DTD SVG 1.1//EN" "http://www.w3.org/Graphics/SVG/1.1/DTD/svg11.dtd">
<svg version="1.1" id="Capa_1" xmlns="http://www.w3.org/2000/svg" xmlns:xlink="http://www.w3.org/1999/xlink" x="0px" y="0px"
	 width="60.734px" height="60.732px" viewBox="0 0 60.734 60.732" enable-background="new 0 0 60.734 60.732" xml:space="preserve">
<g>
	<radialGradient id="SVGID_1_" cx="-0.9666" cy="-0.3" r="92.1613" gradientUnits="userSpaceOnUse">
		<stop  offset="0" style="stop-color:#970CA3"/>
		<stop  offset="1" style="stop-color:#E5334D"/>
	</radialGradient>
	<path fill="url(#SVGID_1_)" d="M57.378,0.001H3.352C1.502,0.001,0,1.5,0,3.353v54.026c0,1.853,1.502,3.354,3.353,3.354h29.086
		V37.214h-7.914v-9.167h7.914v-6.76c0-7.844,4.789-12.116,11.787-12.116c3.354,0,6.231,0.251,7.07,0.36v8.197l-4.854,0.002
		c-3.805,0-4.539,1.81-4.539,4.462v5.852h9.078l-1.188,9.166h-7.892v23.52h15.475c1.853,0,3.355-1.503,3.355-3.351V3.351
		C60.731,1.5,59.23,0.001,57.378,0.001z"/>
</g>
</svg>
