<?xml version="1.0" encoding="utf-8"?>
<!-- Generator: Adobe Illustrator 16.0.0, SVG Export Plug-In . SVG Version: 6.00 Build 0)  -->
<!DOCTYPE svg PUBLIC "-//W3C//DTD SVG 1.1//EN" "http://www.w3.org/Graphics/SVG/1.1/DTD/svg11.dtd">
<svg version="1.1" id="Capa_1" xmlns="http://www.w3.org/2000/svg" xmlns:xlink="http://www.w3.org/1999/xlink" x="0px" y="0px"
	 width="1000px" height="1000px" viewBox="0 0 1000 1000" enable-background="new 0 0 1000 1000" xml:space="preserve">
<linearGradient id="SVGID_1_" gradientUnits="userSpaceOnUse" x1="61.5928" y1="57.2412" x2="867.5928" y2="871.2412">
	<stop  offset="0" style="stop-color:#770AA0"/>
	<stop  offset="1" style="stop-color:#CC3A3A"/>
</linearGradient>
<path fill="url(#SVGID_1_)" d="M500,0C223.859,0,0,223.856,0,500s223.859,500,500,500c276.141,0,500-223.856,500-500
	S776.141,0,500,0z M306.472,117.123c-8.956,12.405-17.533,25.726-25.659,40c-12.413,21.803-23.487,45.272-33.192,70.077
	c-20.677-5.692-41.254-12.085-61.703-19.188C220.282,171.072,261.059,140.172,306.472,117.123z M134.098,276.139
	c29.328,11.007,58.913,20.656,88.695,28.956c-12.256,48.549-19.856,100.467-22.423,154.069H72.882
	C79.2,392.584,100.782,330.39,134.098,276.139z M134.098,723.861c-33.318-54.254-54.9-116.446-61.216-183.025h127.487
	c2.569,53.603,10.167,105.521,22.423,154.069C193.01,703.205,163.426,712.854,134.098,723.861z M185.918,791.99
	c20.449-7.103,41.025-13.5,61.7-19.188c9.708,24.805,20.782,48.274,33.195,70.077c8.123,14.271,16.702,27.595,25.659,40
	C261.059,859.828,220.282,828.931,185.918,791.99z M459.164,907.872c-52.29-19.61-98.61-75.88-130.897-153.574
	c43.413-8.014,87.12-12.972,130.897-14.872V907.872z M459.164,657.574c-52.431,2.098-104.774,8.259-156.71,18.438
	c-10.667-41.936-17.712-87.513-20.294-135.18h177.005V657.574z M459.164,459.164H282.159c2.582-47.667,9.628-93.244,20.295-135.18
	c51.933,10.182,104.279,16.341,156.71,18.438V459.164z M459.164,260.572c-43.777-1.9-87.482-6.859-130.897-14.872
	c32.287-77.695,78.607-133.962,130.897-153.575V260.572z M865.905,276.146c33.315,54.249,54.895,116.441,61.21,183.018H799.628
	c-2.566-53.598-10.166-105.515-22.42-154.059C806.992,296.805,836.579,287.159,865.905,276.146z M814.09,208.021
	c-20.449,7.103-41.025,13.5-61.705,19.19c-9.708-24.811-20.782-48.285-33.197-70.09c-8.126-14.272-16.703-27.595-25.656-40
	C738.946,140.174,779.723,171.077,814.09,208.021z M540.836,92.128c52.29,19.61,98.613,75.884,130.9,153.584
	c-43.413,8.01-87.121,12.967-130.9,14.864V92.128z M540.836,342.428c52.436-2.095,104.782-8.254,156.713-18.431
	c10.667,41.933,17.71,87.507,20.292,135.169H540.836V342.428L540.836,342.428z M540.836,540.836h177.005
	c-2.582,47.661-9.625,93.236-20.292,135.169c-51.931-10.179-104.277-16.336-156.713-18.433V540.836L540.836,540.836z
	 M540.836,907.872V739.426c43.782,1.9,87.49,6.854,130.9,14.866C639.449,831.987,593.126,888.262,540.836,907.872z M693.531,882.877
	c8.956-12.405,17.533-25.726,25.656-40c12.415-21.805,23.489-45.279,33.197-70.087c20.677,5.692,41.254,12.087,61.705,19.189
	C779.723,828.923,738.946,859.826,693.531,882.877z M865.905,723.856c-29.326-11.016-58.913-20.661-88.695-28.964
	c12.254-48.544,19.852-100.459,22.421-154.057h127.487C920.8,607.413,899.221,669.605,865.905,723.856z"/>
</svg>
