<?xml version="1.0" encoding="utf-8"?>
<!-- Generator: Adobe Illustrator 16.0.0, SVG Export Plug-In . SVG Version: 6.00 Build 0)  -->
<!DOCTYPE svg PUBLIC "-//W3C//DTD SVG 1.1//EN" "http://www.w3.org/Graphics/SVG/1.1/DTD/svg11.dtd">
<svg version="1.1" id="Layer_1" xmlns="http://www.w3.org/2000/svg" xmlns:xlink="http://www.w3.org/1999/xlink" x="0px" y="0px"
	 width="1000px" height="1000px" viewBox="0 0 1000 1000" enable-background="new 0 0 1000 1000" xml:space="preserve">
<g>
	<g id="XMLID_1_">
		<g>
			<radialGradient id="SVGID_1_" cx="78.5" cy="48.5" r="1369.7722" gradientUnits="userSpaceOnUse">
				<stop  offset="0" style="stop-color:#B21ABA"/>
				<stop  offset="1" style="stop-color:#D11934"/>
			</radialGradient>
			<path fill="url(#SVGID_1_)" d="M945.35,332.94c2.45,3.61,3.33,8.08,2.42,12.36l-5.55,26.16c-1.17,5.5-5.13,10-10.439,11.84
				l-47.28,16.43l-1.3,9.85c-0.37,2.76-1.45,5.37-3.13,7.59l-7.761,10.24l-8.729,54.82c-0.68,4.29-3.08,8.13-6.64,10.62
				c-3.561,2.5-7.98,3.44-12.25,2.63l-13.5-2.58l-7.91,49.84c-1.021,6.399-5.79,11.569-12.09,13.1
				c-6.32,1.53-12.921-0.899-16.75-6.13l-29.051-39.69l-12.569,0.62c-6.12,0.311-11.801-2.87-14.79-8.17
				c-2.99-5.31-2.721-11.84,0.689-16.88l19.07-28.2l-17.01-1.86c-2.521-0.28-4.931-1.14-7.04-2.53l-23.03-15.04l-33.54,13.9
				l27.32,100.34c1.47,5.37,0.04,11.109-3.75,15.18c-3.8,4.07-9.44,5.88-14.891,4.8l-28.67-5.71l-21.37,16.34l-2.8,22.601
				c-0.63,5.12-3.68,9.62-8.21,12.109l-57.14,31.4c-2.91,7.01-5.76,14.05-8.73,21.03c-2.649,6.22-7.199,10.17-11.91,14.88
				c-5.88,5.89-11.6,12.03-17.699,17.71c-5.16,4.8-12.7,6.85-19.11,9.53l-19,25.89c-2.63,3.6-6.64,5.93-11.07,6.46l-15.32,1.8
				l-12.25,7.561l-14.66,44.3l7.69,23.21c0.84,2.54,1.04,5.24,0.57,7.87l-14.56,81.89c-0.49,2.75-1.69,5.33-3.48,7.48l-27.61,33.109
				l-10.98,13.41l-7.07,13.88c-1.81,3.54-4.87,6.29-8.59,7.71l-32.22,12.311c-1.85,0.71-3.79,1.06-5.73,1.06
				c-6.64,0-12.77-4.27-15.07-10.49L189.27,633.85c-1.01-2.739-1.26-5.71-0.72-8.58l5.66-29.76l-9.43-22.35l-17.51,22.96
				c-4.66,6.11-12.99,8.06-19.89,4.66l-39.75-19.601c-2.51-1.239-4.66-3.13-6.23-5.46L76.9,539.23c-2.69-4-3.43-9-2.04-13.61
				c1.04-3.44,3.2-6.4,6.08-8.45l-20.07-9.83c-5.79-2.84-9.33-8.87-8.97-15.32s4.54-12.06,10.62-14.23l65.57-23.51l-0.16-9.69
				l-21.72-44.46l-8.54-6.53c-5.48-4.19-7.67-11.42-5.44-17.95l16.57-48.59c2.82-8.29,11.77-12.79,20.11-10.12l30.09,9.64
				l59.35-65.22l0.13-6.69c0.05-2.63,0.74-5.2,2.01-7.49l33.76-60.86l-40.71-44.34c-2.63-2.86-4.13-6.58-4.23-10.47l-1.36-55.05
				l-24.78-21.71c-3.86-3.39-5.87-8.41-5.41-13.53c0.47-5.12,3.35-9.71,7.75-12.34l44.43-26.6c4.46-2.67,9.95-3.01,14.71-0.93
				l82.44,36.14l66.12-3.5c3.22-0.17,6.39,0.63,9.14,2.28l30.98,18.66c7.13,4.29,9.8,13.32,6.16,20.8l-34.48,70.77l9.01,15.81
				c2.5,4.38,2.79,9.67,0.8,14.3c-1.99,4.63-6.04,8.06-10.94,9.26l-3.73,0.91l26.08,39.89l15.85,5.43
				c7.96,2.73,12.47,11.13,10.33,19.28l-10.95,41.74l190.88,81.49l19.95-43.22c2.08-4.51,6.13-7.8,10.97-8.92
				c4.83-1.12,9.92,0.06,13.771,3.2l47.91,39.03h24.369l1.36-14.6c0.46-4.93,3.17-9.37,7.34-12.04l62.78-40.18l6.16-9.23
				c2.899-4.34,7.729-7.01,12.95-7.14l60.51-1.59c5.479-0.14,10.64,2.51,13.72,7.04L945.35,332.94z M914.92,345.33l-22.439-33.05
				l-43.421,1.14l-3.409,5.1c-1.23,1.84-2.83,3.41-4.7,4.61l-59,37.76l-2,21.37c-0.771,8.26-7.7,14.58-16,14.58h-44.72
				c-3.69,0-7.28-1.28-10.141-3.62l-36.29-29.56l-17.81,38.59c-3.641,7.89-12.9,11.46-20.9,8.04L416.1,317.23
				c-7.33-3.13-11.25-11.15-9.23-18.85l10.67-40.72l-6.94-2.38c-3.38-1.16-6.28-3.41-8.24-6.4l-41.53-63.51
				c-2.86-4.36-3.42-9.84-1.5-14.69c1.91-4.85,6.06-8.47,11.12-9.71l5.11-1.25l-2.66-4.68c-2.63-4.61-2.81-10.22-0.49-15
				l31.75-65.16l-14.17-8.53l-65.01,3.44c-2.51,0.13-5.01-0.33-7.3-1.33l-78.34-34.35l-18.38,11.01l13.48,11.82
				c3.37,2.96,5.35,7.2,5.47,11.68l1.39,56.07l44.47,48.43c4.68,5.09,5.57,12.61,2.22,18.66l-37.45,67.49l-0.16,8.73
				c-0.07,3.9-1.55,7.63-4.18,10.52l-70.37,77.33c-4.23,4.66-10.8,6.41-16.79,4.49l-24.91-7.98l-7.75,22.73l2.37,1.81
				c1.98,1.52,3.58,3.47,4.68,5.71l24.95,51.08c1.04,2.11,1.59,4.43,1.63,6.78l0.42,24.78c0.11,6.88-4.17,13.07-10.65,15.39
				l-40.61,14.56l6.65,3.26l7.6,3.72c5.44,2.67,8.91,8.17,8.99,14.221c0.09,6.06-3.25,11.649-8.61,14.449l-9.08,4.75l10.99,18.641
				l24.04,11.87l34.77-45.591c4.23-5.55,11.56-7.739,18.15-5.399c6.57,2.33,10.9,8.64,10.69,15.62l-0.75,25.67l13.11,31.07
				c1.23,2.92,1.57,6.14,0.98,9.25l-5.73,30.14l124.41,336.25l11.27-4.3l5.05-9.91c0.52-1.03,1.15-2,1.88-2.891l12.18-14.859
				l24.96-29.94l13.1-73.689l-8.08-24.391c-1.09-3.279-1.09-6.819-0.01-10.1l18.17-54.92c1.19-3.59,3.6-6.65,6.82-8.64L450.98,717
				c1.99-1.23,4.23-2.01,6.55-2.28l11.91-1.41l17.51-23.859c1.72-2.36,4.07-4.2,6.76-5.32l14.71-6.14l21.17-21.181l10.57-25.43
				c1.39-3.36,3.899-6.16,7.09-7.91l54.88-30.16l2.62-21.14c0.53-4.28,2.76-8.16,6.18-10.79l32.5-24.85c3.67-2.811,8.38-3.91,12.9-3
				l10.34,2.06l-24.22-88.94c-2.12-7.81,1.88-15.97,9.35-19.07l54.44-22.57c4.91-2.03,10.51-1.51,14.95,1.4l26.92,17.58l39.68,4.36
				c5.59,0.61,10.46,4.11,12.83,9.23c2.36,5.11,1.88,11.08-1.28,15.75l-17.859,26.41c1.819,1.09,3.439,2.55,4.739,4.31l11.37,15.54
				l4.46-28.12c0.69-4.3,3.08-8.13,6.65-10.63c3.56-2.5,7.979-3.45,12.25-2.63l13.5,2.58l6.76-42.41c0.42-2.61,1.47-5.08,3.06-7.18
				l7.631-10.06l2.06-15.46c0.79-6.01,4.92-11.07,10.65-13.06l48.06-16.7L914.92,345.33z"/>
			<radialGradient id="SVGID_2_" cx="78.5" cy="48.5" r="1369.7722" gradientUnits="userSpaceOnUse">
				<stop  offset="0" style="stop-color:#B21ABA"/>
				<stop  offset="1" style="stop-color:#D11934"/>
			</radialGradient>
			<path fill="url(#SVGID_2_)" d="M892.48,312.28l22.439,33.05l-2.25,10.59l-48.06,16.7c-5.73,1.99-9.86,7.05-10.65,13.06
				l-2.06,15.46l-7.631,10.06c-1.59,2.1-2.64,4.57-3.06,7.18l-6.76,42.41l-13.5-2.58c-4.271-0.82-8.69,0.13-12.25,2.63
				c-3.57,2.5-5.96,6.33-6.65,10.63l-4.46,28.12l-11.37-15.54c-1.3-1.76-2.92-3.22-4.739-4.31l17.859-26.41
				c3.16-4.67,3.641-10.64,1.28-15.75c-2.37-5.12-7.24-8.62-12.83-9.23l-39.68-4.36l-26.92-17.58c-4.44-2.91-10.04-3.43-14.95-1.4
				l-54.44,22.57c-7.47,3.1-11.47,11.26-9.35,19.07l24.22,88.94l-10.34-2.06c-4.521-0.91-9.23,0.189-12.9,3l-32.5,24.85
				c-3.42,2.63-5.649,6.51-6.18,10.79l-2.62,21.14l-54.88,30.16c-3.19,1.75-5.7,4.55-7.09,7.91l-10.57,25.43l-21.17,21.181
				l-14.71,6.14c-2.69,1.12-5.04,2.96-6.76,5.32l-17.51,23.859l-11.91,1.41c-2.32,0.271-4.56,1.05-6.55,2.28l-20.26,12.48
				c-3.22,1.989-5.63,5.05-6.82,8.64l-18.17,54.92c-1.08,3.28-1.08,6.82,0.01,10.1l8.08,24.391l-13.1,73.689l-24.96,29.94
				l-12.18,14.859c-0.73,0.891-1.36,1.86-1.88,2.891l-5.05,9.91l-11.27,4.3L220.97,626.87l5.73-30.14c0.59-3.11,0.25-6.33-0.98-9.25
				l-13.11-31.07l0.75-25.67c0.21-6.98-4.12-13.29-10.69-15.62c-6.59-2.34-13.92-0.15-18.15,5.399l-34.77,45.591l-24.04-11.87
				L114.72,535.6l9.08-4.75c5.36-2.8,8.7-8.39,8.61-14.449c-0.08-6.051-3.55-11.551-8.99-14.221l-7.6-3.72l-6.65-3.26l40.61-14.56
				c6.48-2.32,10.76-8.51,10.65-15.39l-0.42-24.78c-0.04-2.35-0.59-4.67-1.63-6.78l-24.95-51.08c-1.1-2.24-2.7-4.19-4.68-5.71
				l-2.37-1.81l7.75-22.73l24.91,7.98c5.99,1.92,12.56,0.17,16.79-4.49l70.37-77.33c2.63-2.89,4.11-6.62,4.18-10.52l0.16-8.73
				l37.45-67.49c3.35-6.05,2.46-13.57-2.22-18.66l-44.47-48.43l-1.39-56.07c-0.12-4.48-2.1-8.72-5.47-11.68l-13.48-11.82
				l18.38-11.01l78.34,34.35c2.29,1,4.79,1.46,7.3,1.33l65.01-3.44l14.17,8.53l-31.75,65.16c-2.32,4.78-2.14,10.39,0.49,15
				l2.66,4.68l-5.11,1.25c-5.06,1.24-9.21,4.86-11.12,9.71c-1.92,4.85-1.36,10.33,1.5,14.69l41.53,63.51
				c1.96,2.99,4.86,5.24,8.24,6.4l6.94,2.38l-10.67,40.72c-2.02,7.7,1.9,15.72,9.23,18.85l217.99,93.06c8,3.42,17.26-0.15,20.9-8.04
				l17.81-38.59l36.29,29.56c2.86,2.34,6.45,3.62,10.141,3.62h44.72c8.3,0,15.229-6.32,16-14.58l2-21.37l59-37.76
				c1.87-1.2,3.47-2.77,4.7-4.61l3.409-5.1L892.48,312.28z"/>
		</g>
		<g>
		</g>
	</g>
</g>
</svg>
